<?xml version="1.0" encoding="utf-8"?>
<!-- Generator: Adobe Illustrator 24.3.0, SVG Export Plug-In . SVG Version: 6.00 Build 0)  -->
<svg version="1.1" xmlns="http://www.w3.org/2000/svg" xmlns:xlink="http://www.w3.org/1999/xlink" x="0px" y="0px"
	 viewBox="0 0 500 500" style="enable-background:new 0 0 500 500;" xml:space="preserve">
<style type="text/css">
	.st0{fill:url(#SVGID_1_);}
	.st1{fill:#FFFFFF;}
	.st2{fill:#4D4D4D;}
	.st3{fill:url(#SVGID_2_);}
	.st4{fill:url(#SVGID_3_);}
	.st5{fill:url(#SVGID_4_);}
	.st6{opacity:0.3;fill:#F9D10F;}
	.st7{fill:#F9D10F;}
</style>
<g id="Background">
</g>
<g id="Objects">
	<g>
		<linearGradient id="SVGID_1_" gradientUnits="userSpaceOnUse" x1="250" y1="236.6808" x2="250" y2="104.5995">
			<stop  offset="0" style="stop-color:#F9D10F"/>
			<stop  offset="0.2166" style="stop-color:#F8BE12"/>
			<stop  offset="0.6524" style="stop-color:#F58E1A"/>
			<stop  offset="1" style="stop-color:#F26321"/>
		</linearGradient>
		<path class="st0" d="M369.2,206.4c0,8.4-0.9,16.5-2.5,24.4c-4.2,20.4-13.7,38.8-26.9,53.9c-21.9,25-54,40.8-89.8,40.8
			c-33.9,0-64.5-14.2-86.2-36.9c-1.3-1.3-2.5-2.7-3.7-4.1c-11.9-13.8-20.8-30.3-25.5-48.5c-0.1-0.4-0.2-0.8-0.3-1.3
			c-2.3-9.1-3.4-18.6-3.4-28.4c0-4.2,0.2-8.3,0.6-12.3c0.5-5.1,1.4-10.2,2.6-15.1c6.1-26.1,20.8-48.8,40.9-65.1
			c6.9-5.6,14.4-10.5,22.5-14.4c15.9-7.8,33.7-12.2,52.6-12.2c50.4,0,93.5,31.3,110.9,75.5v0c1.1,2.9,2.2,5.9,3.1,8.9
			C367.4,182.6,369.2,194.3,369.2,206.4z"/>
		<g>
			<path class="st1" d="M364,171.6h-70.6l7.2-1c1.7-0.2,3.3-1.2,4.1-2.7c1.1-2,3.2-3.4,5.6-3.4c2.2,0,4.2,1.2,5.3,2.9
				c1.4-3.3,4.6-5.6,8.3-5.6c0.9,0,1.7,0.2,2.5,0.4c2.3-6.7,8.7-11.6,16.2-11.6c7.8,0,14.4,5.2,16.4,12.4c0.6-0.2,1.3-0.4,2-0.4
				C362.1,165.6,363.1,168.6,364,171.6z"/>
			<path class="st1" d="M190.4,194.1h-59c0.5-5.1,1.4-10.2,2.6-15.1c2.8-2.7,6.6-4.3,10.8-4.3c7,0,12.9,4.5,15,10.7
				c0.7-0.2,1.5-0.4,2.3-0.4c3.5,0,6.5,2.1,7.7,5.2c1-1.6,2.9-2.7,5-2.7c2.3,0,4.2,1.3,5.2,3.1c0.7,1.4,2.2,2.3,3.8,2.5L190.4,194.1
				z"/>
			<path class="st1" d="M231.5,113.8h-56.6c6.9-5.6,14.4-10.5,22.5-14.4c1.6,1.6,2.8,3.6,3.5,5.8c0.7-0.2,1.5-0.4,2.3-0.4
				c3.5,0,6.5,2.1,7.7,5.2c1.1-1.6,2.9-2.7,5-2.7c2.2,0,4.2,1.3,5.2,3.1c0.7,1.4,2.2,2.3,3.8,2.5L231.5,113.8z"/>
		</g>
		<path class="st2" d="M369.2,206.4c0,1,0,2,0,3c-0.1,8.5-0.9,15.1-2.3,20.4c0,0,0,0,0,0.1c-0.1,0.6-0.3,1.1-0.5,1.7v0
			c-17.6,25-61.3,27.3-113.2-3.6c22.7,7.7,81.4,16.5,110.6-34.1c1.4-2.4,2.7-4.5,3.9-6.3C368.7,193.7,369.2,200,369.2,206.4z"/>
		<linearGradient id="SVGID_2_" gradientUnits="userSpaceOnUse" x1="98.1833" y1="327.3299" x2="392.9591" y2="190.6715">
			<stop  offset="0" style="stop-color:#55FDE3"/>
			<stop  offset="5.109262e-02" style="stop-color:#65FDE6"/>
			<stop  offset="0.216" style="stop-color:#94FEED"/>
			<stop  offset="0.3809" style="stop-color:#BAFEF4"/>
			<stop  offset="0.5433" style="stop-color:#D8FFF9"/>
			<stop  offset="0.7022" style="stop-color:#EEFFFC"/>
			<stop  offset="0.8563" style="stop-color:#FBFFFE"/>
			<stop  offset="1" style="stop-color:#FFFFFF"/>
		</linearGradient>
		<path class="st3" d="M366.7,230.8c-4.2,20.4-13.7,38.8-26.9,53.9c-21.9,25-54,40.8-89.8,40.8c-33.9,0-64.5-14.2-86.2-36.9
			c-1.3-1.3-2.5-2.7-3.7-4.1c-11.9-13.8-20.8-30.3-25.5-48.5c-0.1-0.4-0.2-0.8-0.3-1.3c0,0,43.1-47.1,115.3-8.7
			C307.7,255.8,342,257.4,366.7,230.8z"/>
		<linearGradient id="SVGID_3_" gradientUnits="userSpaceOnUse" x1="137.2862" y1="303.2606" x2="317.9523" y2="218.9152">
			<stop  offset="0" style="stop-color:#55FDE3"/>
			<stop  offset="1" style="stop-color:#1274BF"/>
		</linearGradient>
		<path class="st4" d="M351.8,267.6c-8.7,10.1-22.8,20-44.7,20c-13.7,0-29.2-3.9-46.1-11.6c-18.6-8.5-35.9-12.8-51.2-12.8
			c-19.9,0-37.1,7.4-49.8,21.4c-11.9-13.8-20.8-30.3-25.5-48.5c14.5-10.5,48.6-28,92.2-3C269.4,257.4,318.8,288.4,351.8,267.6z"/>
		<linearGradient id="SVGID_4_" gradientUnits="userSpaceOnUse" x1="286.8213" y1="243.8741" x2="221.5871" y2="323.6048">
			<stop  offset="0" style="stop-color:#55FDE3"/>
			<stop  offset="1" style="stop-color:#1274BF"/>
		</linearGradient>
		<path class="st5" d="M339.8,284.8c-21.9,25-54,40.8-89.8,40.8c-33.9,0-64.5-14.2-86.2-36.9c16.7-18.7,46.2-29.9,95-7.6
			C296.9,298.5,322.8,294.6,339.8,284.8z"/>
		<g>
			<path class="st6" d="M279.6,155.1c0,16.5-8.8,30.9-22,38.8c-6.8,4.1-14.7,6.4-23.2,6.4c-25,0-45.2-20.2-45.2-45.2
				s20.2-45.2,45.2-45.2c22.5,0,41.2,16.5,44.6,38.1C279.4,150.3,279.6,152.7,279.6,155.1z"/>
			<path class="st6" d="M262.2,155.1c0,10.1-5.4,19-13.5,23.8c-4.2,2.5-9,3.9-14.2,3.9c-15.3,0-27.8-12.4-27.8-27.8
				c0-15.3,12.4-27.8,27.8-27.8c13.8,0,25.3,10.1,27.4,23.4C262,152.1,262.2,153.6,262.2,155.1z"/>
			<path class="st7" d="M246.6,155.1c0,4.5-2.4,8.4-6,10.5c-1.8,1.1-4,1.7-6.3,1.7c-6.8,0-12.2-5.5-12.2-12.2
				c0-6.8,5.5-12.2,12.2-12.2c6.1,0,11.2,4.5,12.1,10.3C246.6,153.8,246.6,154.4,246.6,155.1z"/>
		</g>
		<g>
			<g>
				<path class="st2" d="M283.9,236.1l-10-0.5c0,0,0.5-0.3,2.1-4.5l5.2,0.3l-4.9-1c0.7-1.9,1.4-4.1,2.1-6.5l3.9,0.2l-3.8-0.7
					c0.5-2.1,1-4.3,1.3-6.7l4.2,0.2l-4.2-0.8c0.3-2.2,0.5-4.6,0.5-7l4.1-0.3l-4.1-0.2c0-2.5-0.2-5.1-0.6-7.7l1.8-0.5l-1.8,0.3
					c-0.3-1.9-0.7-3.8-1.2-5.7l1.9-1.2l-2,0.8c-0.4-1.6-1-3.3-1.6-4.9l2-1.2l-2.1,0.9c-0.3-0.9-0.7-1.7-1.1-2.6l1.1-0.7l-1.2,0.5
					c-0.3-0.7-0.7-1.4-1-2.1l1.6-1l-1.7,0.7c-1.2-2.3-2.7-4.7-4.4-7l0,0c-0.1-0.1-0.2-0.3-0.3-0.4c0,0,0,0,0,0
					c0-0.1-0.1-0.1-0.1-0.2c-0.2-0.2-0.4-0.5-0.6-0.7c0,0,0-0.1,0-0.1c0,0,0,0,0-0.1c0,0,0,0,0,0c-0.1-0.2-0.2-0.3-0.3-0.4
					c-0.1-0.1-0.1-0.1-0.2-0.2l-0.1-0.1c0,0,0,0,0,0c-0.1-0.1-0.2-0.2-0.3-0.3c0,0,0-0.1-0.1-0.1c0,0,0,0,0,0
					c-0.3-0.4-0.6-0.7-0.9-1.1c-1.3-1.6-2.8-3.2-4.4-4.7c0.2,0.1,1.3,0.8,3,2c0,0,0,0,0,0c0.4,0.3,0.9,0.7,1.3,1
					c0.6,0.5,1.3,1.1,2,1.7c0,0,0,0,0,0c0.1,0,0.1,0.1,0.2,0.1c0,0,0,0,0,0l0,0c0,0,0,0,0.1,0.1c0.2,0.2,0.4,0.3,0.5,0.5
					c0.1,0.1,0.2,0.2,0.3,0.3c0,0,0,0,0,0l0,0c0,0,0.1,0.1,0.1,0.1c0,0,0,0,0,0c0,0,0.1,0.1,0.1,0.1c0,0,0,0,0,0l0,0
					c0.2,0.2,0.4,0.4,0.6,0.7C280.3,184.7,292.5,203.9,283.9,236.1z"/>
			</g>
			<g>
				<path class="st2" d="M272.5,179.9c-0.2,1.5-1.6,2.6-3.1,2.3c-1.5-0.2-2.6-1.6-2.3-3.1c0.2-1.5,1.6-2.6,3.1-2.3
					C271.6,177,272.7,178.4,272.5,179.9z"/>
				<g>
					<path class="st2" d="M272.4,175.5c-0.2,1.5-1.6,2.6-3.1,2.3c-1.5-0.2-2.6-1.6-2.3-3.1c0.2-1.5,1.6-2.6,3.1-2.3
						C271.6,172.6,272.6,174,272.4,175.5z"/>
					
						<ellipse transform="matrix(0.9999 -1.668258e-02 1.668258e-02 0.9999 -2.9207 4.5948)" class="st2" cx="273.9" cy="177.4" rx="2.7" ry="2.7"/>
					<path class="st2" d="M269.3,177.9c-0.2,1.5-1.6,2.6-3.1,2.3c-1.5-0.2-2.6-1.6-2.3-3.1c0.2-1.5,1.6-2.6,3.1-2.3
						C268.4,175,269.5,176.4,269.3,177.9z"/>
				</g>
			</g>
		</g>
		<path class="st2" d="M301.1,182.9c0,0-8.6,13.3-8.6,29.7c0,7.9,2,15.1,4.1,20.5c2.2,5.7,4.5,9.2,4.5,9.2s2.6-4.1,5-10.6
			c1.9-5.2,3.6-11.8,3.6-19.1C309.7,196.2,301.1,182.9,301.1,182.9z M301.1,237.4c0,0-0.1-1.8-0.1-4.8c-0.1-4.5-0.2-11.8-0.2-20
			c0-13.7,0.3-24.8,0.3-24.8s0.3,11.1,0.3,24.8c0,8.2-0.1,15.4-0.2,19.9C301.2,235.6,301.1,237.4,301.1,237.4z"/>
		<g>
			<path class="st2" d="M262.9,203.3c-8.6-4.1-10-15.4-8-19.8c4.9-10.6,16.6-8.2,16.6-8.2l-0.1,1.2c-4.4,2.2-8.2,11.8-8.2,11.8
				l0.8-3.6c-1.7,2.2-2.6,5.4-2.8,7.9c-0.4-1-0.6-1.9-0.9-2.6c-0.2,4,1.9,9.6,1.9,9.6c-0.8-0.2-1.8-1.9-1.8-2.1
				C260.6,199.8,262.9,203.3,262.9,203.3z"/>
			<path class="st2" d="M275.8,191.4c-5,1.5-9.7-2.5-10.5-5c-1.9-6.1,3.7-9.4,3.7-9.4l0.4,0.5c-1,2.5,1,7.8,1,7.8l-1-1.7
				c0.1,1.5,0.9,3.1,1.8,4.2c-0.5-0.3-0.9-0.5-1.3-0.7c1.4,1.7,4.3,3.2,4.3,3.2c-0.4,0.2-1.5-0.1-1.5-0.2
				C273.6,190.8,275.8,191.4,275.8,191.4z"/>
			<path class="st2" d="M244.7,195.6c-5.7-9.1-0.6-18.2,4.9-20.9c14-6.7,20.3,0.5,20.3,0.5l-0.6,0.8c-4.8-0.6-13.9,5.1-13.9,5.1
				l3-2.6c-3,0.9-6,3.2-7.8,5.4c0.2-1.2,0.6-2,0.7-2.9c-3,3.6-4.6,10.3-4.6,10.3c-0.8-0.6-0.7-3-0.5-3.1
				C244.6,190.6,244.7,195.6,244.7,195.6z"/>
			<path class="st2" d="M294.1,190c3.7-8.8-2.7-18.2-7.1-20.1c-10.7-4.7-17.9,4.9-17.9,4.9l0.9,0.8c4.7-1.2,14,3.4,14,3.4l-3-2.2
				c2.7,0.5,5.5,2.3,7.3,4c-0.4-1-0.8-1.8-1-2.5c2.8,2.9,4.9,8.4,4.9,8.4c0.5-0.7,0.1-2.7-0.1-2.8C293.5,185.7,294.1,190,294.1,190z
				"/>
			<path class="st2" d="M286,155.2c-7.8-3.9-16.7,1.4-18.7,5.3c-4.9,9.4,3.4,16.5,3.4,16.5l0.8-0.8c-0.8-4.4,3.9-12.5,3.9-12.5
				l-2.1,2.6c0.6-2.4,2.4-4.9,4.1-6.4c-1,0.3-1.6,0.6-2.4,0.8c2.8-2.4,7.9-4,7.9-4c-0.6-0.5-2.4-0.2-2.5-0.1
				C282.1,155.5,286,155.2,286,155.2z"/>
			<path class="st2" d="M300.2,172.8c-3.5-11.7-13.4-14.2-18.4-12.7c-15.4,4.5-13.1,16.5-13.1,16.5l1.3,0.1
				c2.9-4.9,13.9-7.3,13.9-7.3l-4,0.1c2.6-1.5,6.2-1.9,8.9-1.5c-1.1-0.7-2-1.1-2.7-1.7c4.4,0.7,10.2,4.7,10.2,4.7
				c-0.1-1-1.9-2.7-2.1-2.7C296.6,169.1,300.2,172.8,300.2,172.8z"/>
			<path class="st2" d="M249.6,167.6c9.6-7,17.4,0.3,19.2,4.1c3.1,6.6-1.4,11.4-1.4,11.4l-0.5-0.3c0.8-2.7-3.2-7.8-3.2-7.8l2,1.7
				c-0.6-1.9-2.4-3.7-4.2-4.9c1,0.1,1.8,0.4,2.5,0.4c-3.1-2-9.6-3-9.6-3c0.6-0.7,3-0.7,3.1-0.6C255,167.4,249.6,167.6,249.6,167.6z"
				/>
		</g>
		<g>
			<g>
				<g>
					<g>
						<path class="st2" d="M335.1,234.2l-17.5-2.4c0,0,0.5,2.3,2.9-5.3l9.3-0.2l-8.9-1c1-3.4,2-7.4,2.8-11.9l7-0.2l-6.8-0.8
							c0.7-3.7,1.2-7.8,1.4-12l7.6-0.2l-7.5-0.9c0.2-4,0.2-8.2-0.1-12.6l7.2-1.1l-7.3,0.1c-0.4-4.4-1-9-2.1-13.6l3.1-1.2l-3.3,0.7
							c-0.8-3.3-1.7-6.6-3-10l3.2-2.3l-3.4,1.8c-1-2.8-2.2-5.7-3.6-8.5l3.3-2.4l-3.6,1.9c-0.7-1.5-1.5-3-2.4-4.5l2-1.4l-2.1,1.1
							c-0.7-1.2-1.3-2.4-2.1-3.5l2.6-1.9l-2.9,1.5c-2.5-4-5.4-8-8.7-12l0,0c-0.2-0.2-0.4-0.5-0.6-0.7c0,0,0,0,0,0
							c-0.1-0.1-0.2-0.2-0.3-0.3c-0.4-0.4-0.7-0.8-1.1-1.2c0-0.1-0.1-0.1-0.1-0.1c0,0-0.1-0.1-0.1-0.1c0,0-0.1-0.1-0.1-0.1
							c-0.2-0.3-0.4-0.5-0.6-0.7c-0.1-0.1-0.2-0.2-0.3-0.3l-0.2-0.2c0,0,0,0,0,0c-0.2-0.2-0.3-0.4-0.5-0.6c-0.1-0.1-0.1-0.1-0.1-0.1
							c0,0,0,0,0,0c-0.6-0.6-1.1-1.2-1.7-1.8c-2.6-2.6-5.4-5.3-8.4-7.8c0.3,0.1,2.5,1.2,5.7,3.2c0,0,0,0,0,0c0.8,0.5,1.6,1,2.5,1.7
							c1.2,0.8,2.5,1.7,3.8,2.8c0,0,0,0,0,0c0.1,0,0.2,0.1,0.3,0.2c0,0,0.1,0,0.1,0.1l0,0c0,0,0.1,0.1,0.1,0.1
							c0.3,0.3,0.7,0.5,1,0.8c0.2,0.2,0.4,0.3,0.6,0.5c0,0,0,0,0,0l0,0c0.1,0.1,0.2,0.2,0.3,0.2c0,0,0,0,0.1,0
							c0.1,0.1,0.1,0.1,0.2,0.2c0,0,0,0,0,0l0,0c0.4,0.4,0.8,0.7,1.2,1.1C321.8,143.2,346.2,175.8,335.1,234.2z"/>
					</g>
					<g>
						<path class="st2" d="M307.3,135.7c-0.2,2.7-2.5,4.8-5.2,4.6c-2.7-0.2-4.8-2.5-4.6-5.2c0.2-2.7,2.5-4.8,5.2-4.6
							C305.4,130.7,307.4,133,307.3,135.7z"/>
						<g>
							<path class="st2" d="M306.6,127.9c-0.2,2.7-2.5,4.8-5.2,4.6c-2.7-0.2-4.8-2.5-4.6-5.2c0.2-2.7,2.5-4.8,5.2-4.6
								C304.7,122.8,306.8,125.2,306.6,127.9z"/>
							<path class="st2" d="M314.5,131.3c-0.2,2.7-2.5,4.8-5.2,4.6c-2.7-0.2-4.8-2.5-4.6-5.2c0.2-2.7,2.5-4.8,5.2-4.6
								C312.6,126.2,314.6,128.5,314.5,131.3z"/>
							<path class="st2" d="M301.3,132.4c-0.2,2.7-2.5,4.8-5.2,4.6c-2.7-0.2-4.8-2.5-4.6-5.2c0.2-2.7,2.5-4.8,5.2-4.6
								S301.4,129.7,301.3,132.4z"/>
						</g>
					</g>
				</g>
				<g>
					<path class="st2" d="M293.4,178.7c-15.9-6.2-19.9-26.1-16.9-34.2c7.3-19.6,28.6-16.9,28.6-16.9l-0.1,2.1
						c-7.5,4.5-13.1,22.2-13.1,22.2l0.9-6.5c-2.7,4.1-3.9,9.9-3.9,14.4c-0.8-1.7-1.2-3.2-1.9-4.5c0.1,7.2,4.6,16.8,4.6,16.8
						c-1.4-0.2-3.5-3.2-3.5-3.6C288.8,172.7,293.4,178.7,293.4,178.7z"/>
					<path class="st2" d="M314.8,155.8c-8.7,3.3-17.6-3.2-19.4-7.6c-4.3-10.6,5.3-17.3,5.3-17.3l0.8,0.9c-1.4,4.6,2.9,13.8,2.9,13.8
						l-2-3c0.4,2.7,2.1,5.4,3.7,7.2c-1-0.4-1.7-0.8-2.4-1.1c2.7,2.9,8,5.1,8,5.1c-0.7,0.4-2.6,0-2.7-0.2
						C310.7,155,314.8,155.8,314.8,155.8z"/>
					<path class="st2" d="M259.8,167.4c-11.3-15.4-3.5-32.4,5.9-37.8c24.1-13.8,36.2-1.9,36.2-1.9l-1,1.5c-8.6-0.5-24,11-24,11
						l4.9-5.1c-5.2,2-10.2,6.5-13.2,10.7c0.3-2.1,0.9-3.7,0.9-5.2c-4.9,6.8-6.8,18.9-6.8,18.9c-1.5-1-1.7-5.2-1.4-5.5
						C259,158.4,259.8,167.4,259.8,167.4z"/>
					<path class="st2" d="M347.3,150.7c5.4-16.2-7.3-32-15.4-34.9c-19.7-7-31.2,11.1-31.2,11.1l1.7,1.3c8.3-2.8,25.4,4.2,25.4,4.2
						l-5.6-3.4c4.9,0.6,10.1,3.4,13.5,6.2c-0.8-1.8-1.7-3-2.2-4.4c5.4,4.7,9.9,14.3,9.9,14.3c0.7-1.2-0.2-4.8-0.5-4.9
						C345.6,143.2,347.3,150.7,347.3,150.7z"/>
					<path class="st2" d="M328,89.8c-14.4-5.9-29.5,4.7-32.6,11.9c-7.5,17.5,8.2,29,8.2,29l1.3-1.4c-2.1-7.7,5.3-22.9,5.3-22.9
						l-3.5,4.9c0.8-4.4,3.7-9,6.5-11.9c-1.7,0.6-2.8,1.4-4.1,1.7c4.6-4.7,13.6-8.2,13.6-8.2c-1.1-0.7-4.3-0.1-4.5,0.2
						C321.1,90.8,328,89.8,328,89.8z"/>
					<path class="st2" d="M355.8,119.4C348,99,330,95.8,321.3,99.1c-26.8,10-21.2,31.2-21.2,31.2l2.4,0.1
						c4.6-9.1,23.8-14.8,23.8-14.8l-7.1,0.7c4.4-3.1,10.7-4.2,15.6-3.8c-2-1.2-3.6-1.8-5-2.8c7.9,0.7,18.8,7,18.8,7
						c-0.3-1.8-3.7-4.6-4.1-4.6C348.8,113.1,355.8,119.4,355.8,119.4z"/>
					<path class="st2" d="M264.8,116.9c16.2-13.8,31.1-1.8,34.8,4.7c6.5,11.3-0.9,20.4-0.9,20.4l-1-0.4c1-4.9-6.8-13.5-6.8-13.5
						l3.8,2.8c-1.3-3.3-4.7-6.4-8.2-8.2c1.8,0.1,3.2,0.4,4.5,0.3c-5.8-3.2-17.5-4.1-17.5-4.1c1-1.3,5.2-1.7,5.5-1.4
						C274.4,115.7,264.8,116.9,264.8,116.9z"/>
				</g>
			</g>
		</g>
	</g>
</g>
<g id="Texts">
</g>
</svg>
